# AST/ASF file generated using VICON BodyLanguage
# -----------------------------------------------
:version 1.10
:name VICON
:units
  mass 1.0
  length 0.45
  angle deg
:documentation
   .ast/.asf automatically generated from VICON data using
   VICON BodyBuilder and BodyLanguage model FoxedUp or BRILLIANT.MOD
:root
   order TX TY TZ RX RY RZ
   axis XYZ
   position 0 0 0  
   orientation 0 -0 0 
:bonedata
  begin
     id 1 
     name lhipjoint
     direction 0.500677 -0.737119 0.453848 
     length 2.34727 
     axis 0 -0 0  XYZ
  end
  begin
     id 2 
     name lfemur
     direction 0.34202 -0.939693 0  
     length 7.53653  
     axis 0 -0 20  XYZ
    dof rx ry rz
    limits (-160.0 20.0)
           (-70.0 70.0)
           (-60.0 70.0)
  end
  begin
     id 3 
     name ltibia
     direction 0.34202 -0.939693 0   
     length 6.85572   
     axis 0 -0 20   XYZ
    dof rx
    limits (-10.0 170.0)
  end
  begin
     id 4 
     name lfoot
     direction 0.155313 -0.426718 0.890949   
     length 2.18324   
     axis -90 -1.13533e-015 20   XYZ
    dof rx rz
    limits (-45.0 90.0)
           (-70.0 20.0)
  end
  begin
     id 5 
     name ltoes
     direction 1.53474e-011 -4.21647e-011 1   
     length 1.06748   
     axis -90 -1.13533e-015 20   XYZ
    dof rx
    limits (-90.0 20.0)
  end
  begin
     id 6 
     name rhipjoint
     direction -0.632471 -0.659587 0.406111   
     length 2.62319  
     axis 0 -0 0  XYZ 
  end
  begin
     id 7 
     name rfemur
     direction -0.34202 -0.939693 0   
     length 7.21735   
     axis 0 -0 -20   XYZ
    dof rx ry rz
    limits (-160.0 20.0)
           (-70.0 70.0)
           (-70.0 60.0)
  end
  begin
     id 8 
     name rtibia
     direction -0.34202 -0.939693 0   
     length 7.02558   
     axis 0 -0 -20   XYZ
    dof rx
    limits (-10.0 170.0)
 end
 begin
     id 9 
     name rfoot
     direction -0.16057 -0.441164 0.882945   
     length 2.10014  
     axis -90 1.13533e-015 -20   XYZ
    dof rx rz
    limits (-45.0 90.0)
           (-20.0 70.0)
  end
  begin
     id 10 
     name rtoes
     direction -1.53553e-011 -4.2192e-011 1   
     length 1.02554   
     axis -90 1.13533e-015 -20   XYZ
    dof rx
    limits (-90.0 20.0)
  end
  begin
     id 11 
     name lowerback
     direction 0.0401429 0.998861 -0.0258085   
     length 1.80848   
     axis 0 -0 0   XYZ
    dof rx ry rz
    limits (-20.0 45.0)
           (-30.0 30.0)
           (-30.0 30.0)
  end
  begin
     id 12 
     name upperback
     direction -0.0130978 0.999914 -0.000352645   
     length 1.8116   
     axis 0 -0 0   XYZ
    dof rx ry rz
    limits (-20.0 45.0)
           (-30.0 30.0)
           (-30.0 30.0)
  end
  begin
     id 13 
     name thorax
     direction -0.0300198 0.999453 0.0138573   
     length 1.81778   
     axis 0 -0 0   XYZ
    dof rx ry rz
    limits (-20.0 45.0)
           (-30.0 30.0)
           (-30.0 30.0)
  end
  begin
     id 14 
     name lowerneck
     direction -0.0401726 0.999191 -0.00173647   
     length 2.10594   
     axis 0 -0 0   XYZ
    dof rx ry rz
    limits (-20.0 45.0)
           (-30.0 30.0)
           (-30.0 30.0)
  end
  begin
     id 15 
     name upperneck
     direction 0.0119835 0.998501 0.0534085   
     length 2.07325   
     axis 0 -0 0   XYZ
    dof rx ry rz
    limits (-20.0 45.0)
           (-30.0 30.0)
           (-30.0 30.0)
  end
  begin
     id 16
     name head
     direction 0.00628309 0.999826 0.0175921  
     length 2.15096  
     axis 0 -0 0   XYZ
    dof rx ry rz
    limits (-20.0 45.0)
           (-30.0 30.0)
           (-30.0 30.0)
  end
  begin
     id 17 
     name lclavicle
     direction 0.895501 0.429681 -0.115981  
     length 4.18092  
     axis 0 -0 0   XYZ
    dof ry rz
    limits (-20.0 10.0)
           (0.0 20.0)
  end
  begin
     id 18 
     name lhumerus
     direction 1 -4.48961e-011 -3.38433e-028   
     length 5.77237   
     axis 180 -30 -90   XYZ
    dof rx ry rz
    limits (-60.0 90.0)
           (-90.0 90.0)
           (-90.0 90.0)
  end
  begin
     id 19
     name lradius
     direction 1 -4.4901e-011 1.11983e-026   
     length 2.91878   
     axis 180 -30 -90   XYZ
    dof rx
    limits (-10.0 170.0)
  end
  begin
     id 20
     name lwrist
     direction 1 -4.48934e-011 1.88176e-026   
     length 1.45939   
     axis -1.23311e-014 90 90   XYZ
    dof ry
    limits (-180.0 0.0)
 end
  begin
     id 21 
     name lhand
     direction 1 -4.4895e-011 3.76352e-026   
     length 1.06566   
     axis -2.40147e-014 90 90   XYZ
    dof rx rz
    limits (-90.0 90.0)
           (-45.0 45.0)
  end
  begin
     id 22 
     name lfingers
     direction 1 -4.49005e-011 7.52705e-026   
     length 0.859162   
     axis -4.80295e-014 90 90   XYZ
    dof rx
    limits (0.0 90.0)
  end
  begin
     id 23
     name lthumb
     direction 0.707107 -6.34885e-011 0.707107   
     length 1.23359   
     axis -90 45 -9.86935e-015   XYZ
    dof rx rz
    limits (-45.0 45.0)
           (-45.0 45.0)
  end
  begin
     id 24 
     name rclavicle
     direction -0.91006 0.40451 -0.0903492   
     length 4.23293  
     axis 0 -0 0   XYZ 
    dof ry rz
    limits (-10.0 20.0)
           (-20.0 0.0)
  end
  begin
     id 25 
     name rhumerus
     direction -1 -4.4897e-011 1.7415e-027  
     length 5.49854   
     axis 180 30 90   XYZ
    dof rx ry rz
    limits (-90.0 60.0)
           (-90.0 90.0)
           (-90.0 90.0)
  end
  begin
     id 26 
     name rradius
     direction -1 -4.48963e-011 1.21259e-026   
     length 3.1186   
     axis 180 30 90   XYZ
    dof rx
    limits (-10.0 170.0)
  end
  begin
     id 27 
     name rwrist
     direction -1 -4.48967e-011 1.88176e-026   
     length 1.5593   
     axis -1.23311e-014 -90 -90   XYZ
    dof ry
    limits (-180.0 0.0)
  end
  begin
     id 28
     name rhand
     direction -1 -4.4895e-011 3.76352e-026   
     length 0.71207   
     axis -2.40147e-014 -90 -90   XYZ
    dof rx rz
    limits (-90.0 90.0)
           (-45.0 45.0)
  end
  begin
     id 29
     name rfingers
     direction -1 -4.49005e-011 7.52705e-026   
     length 0.574089   
     axis -4.80295e-014 -90 -90   XYZ
    dof rx
    limits (0.0 90.0)
  end
  begin
     id 30
     name rthumb
     direction -0.707107 -6.34982e-011 0.707107   
     length 0.824281   
     axis -90 -45 9.86935e-015   XYZ
    dof rx rz
    limits (-45.0 45.0)
           (-45.0 45.0)
  end
:hierarchy
  begin
    root lhipjoint rhipjoint lowerback
    lhipjoint lfemur
    lfemur ltibia
    ltibia lfoot
    lfoot ltoes
    rhipjoint rfemur
    rfemur rtibia
    rtibia rfoot
    rfoot rtoes
    lowerback upperback
    upperback thorax
    thorax lowerneck lclavicle rclavicle
    lowerneck upperneck
    upperneck head
    lclavicle lhumerus
    lhumerus lradius
    lradius lwrist
    lwrist lhand lthumb
    lhand lfingers
    rclavicle rhumerus
    rhumerus rradius
    rradius rwrist
    rwrist rhand rthumb
    rhand rfingers
  end

#!OML:ASF C:\ViconDB\ViconDB\414\Spring2016\042216\male.ASF
:FULLY-SPECIFIED
:DEGREES
132
root -44.7497 16.9967 13.6235 -163.91 86.0228 -164.348
lowerback -3.53231 -1.35411 4.46941
upperback -0.290786 -1.964 -0.71766
thorax 1.50569 -0.949172 -3.33671
lowerneck -1.69291 5.48655 -1.64426
upperneck 4.62003 7.44339 -0.665175
head 1.68071 3.68406 0.20996
rclavicle 2.70937e-014 -1.98785e-015
rhumerus -33.3788 -3.86651 -92.3346
rradius 29.4585
rwrist 42.4076
rhand 15.0486 -18.579
rfingers 7.12502
rthumb 39.8974 -43.8359
lclavicle 2.70937e-014 -1.98785e-015
lhumerus -38.4721 18.2368 83.0381
lradius 34.1354
lwrist -9.71956
lhand -8.21099 8.30588
lfingers 7.12502
lthumb 17.7058 37.5197
rfemur -10.8345 0.216158 20.6835
rtibia 28.1038
rfoot -19.3376 0.863772
rtoes -6.09865
lfemur -9.36852 -3.32115 -18.3026
ltibia 28.2427
lfoot -27.9227 9.82321
ltoes -15.5547
133
root -44.7491 16.9977 13.6211 -164.105 85.9092 -164.544
lowerback -3.57886 -1.36727 4.52506
upperback -0.252244 -1.98674 -0.732619
thorax 1.56705 -0.957976 -3.38656
lowerneck -1.76541 5.5326 -1.59501
upperneck 4.6546 7.50723 -0.703487
head 1.70773 3.71521 0.194691
rclavicle -2.9681e-014 -1.09332e-015
rhumerus -33.3465 -3.92278 -92.3176
rradius 29.5395
rwrist 42.3537
rhand 15.141 -18.4793
rfingers 7.12502
rthumb 39.9844 -43.7101
lclavicle -2.9681e-014 -1.09332e-015
lhumerus -38.3348 18.033 83.1564
lradius 34.1489
lwrist -9.72033
lhand -7.73125 8.40035
lfingers 7.12502
lthumb 18.1674 37.5719
rfemur -10.8056 0.264471 20.6889
rtibia 28.1017
rfoot -19.3487 0.745791
rtoes -6.18048
lfemur -9.38132 -3.3865 -18.2967
ltibia 28.2427
lfoot -27.9242 9.797
ltoes -15.6624
134
root -44.7475 16.9968 13.6207 -164.604 85.8335 -165.016
lowerback -3.49805 -1.36897 4.26792
upperback -0.278596 -1.9772 -0.549889
thorax 1.51057 -0.956956 -3.05013
lowerneck -1.76402 5.54715 -1.74375
upperneck 4.70783 7.54217 -0.85436
head 1.72503 3.72734 0.17427
rclavicle 1.90445e-014 -1.79403e-014
rhumerus -33.41 -3.82083 -92.0251
rradius 29.6248
rwrist 42.1528
rhand 15.0136 -18.7444
rfingers 7.12502
rthumb 39.8645 -44.0112
lclavicle 1.90445e-014 -1.79403e-014
lhumerus -38.3319 17.9834 83.5206
lradius 34.18
lwrist -9.89637
lhand -7.26439 8.64314
lfingers 7.12502
lthumb 18.6165 37.7723
rfemur -10.7581 0.161982 20.6689
rtibia 28.0993
rfoot -19.3189 0.762785
rtoes -6.3281
lfemur -9.35166 -3.43026 -18.3177
ltibia 28.2465
lfoot -27.9251 9.76515
ltoes -15.6088
135
root -44.7476 16.9983 13.6173 -165.039 85.7352 -165.5
lowerback -3.54496 -1.37513 4.29792
upperback -0.278394 -1.98849 -0.562021
thorax 1.53467 -0.961771 -3.08139
lowerneck -1.78561 5.57579 -1.67345
upperneck 4.70512 7.58297 -0.943464
head 1.73427 3.74695 0.137163
rclavicle -1.207e-014 -8.94531e-015
rhumerus -33.3735 -3.95922 -91.9736
rradius 29.6633
rwrist 42.0872
rhand 13.9957 -19.1162
rfingers 7.12502
rthumb 38.9055 -44.6632
lclavicle -1.207e-014 -8.94531e-015
lhumerus -38.2347 17.7626 83.6638
lradius 34.1928
lwrist -10.1886
lhand -6.78077 8.85065
lfingers 7.12502
lthumb 19.0817 37.9346
rfemur -10.7927 0.117103 20.6384
rtibia 28.0854
rfoot -19.3245 0.724844
rtoes -6.31592
lfemur -9.41824 -3.44188 -18.3384
ltibia 28.2438
lfoot -27.9226 9.67952
ltoes -15.6165
136
root -44.7473 16.996 13.6185 -165.231 85.6606 -165.665
lowerback -3.56893 -1.39067 4.50224
upperback -0.223162 -2.0172 -0.743835
thorax 1.58906 -0.972341 -3.38685
lowerneck -1.79755 5.63535 -1.4352
upperneck 4.64883 7.64984 -0.907274
head 1.72589 3.78478 0.110376
rclavicle -1.77043e-015 6.95746e-015
rhumerus -33.3969 -4.01332 -92.2256
rradius 29.833
rwrist 41.8411
rhand 13.9534 -19.2981
rfingers 7.12502
rthumb 38.8656 -44.8565
lclavicle -1.77043e-015 6.95746e-015
lhumerus -38.0783 17.3375 83.5863
lradius 34.2492
lwrist -10.2035
lhand -6.35906 8.99369
lfingers 7.12502
lthumb 19.4872 38.0371
rfemur -10.7442 0.0326488 20.6577
rtibia 28.0707
rfoot -19.3255 0.693464
rtoes -6.39928
lfemur -9.41482 -3.28922 -18.3268
ltibia 28.2574
lfoot -27.9257 9.53515
ltoes -15.732
